<?xml version="1.0" encoding="utf-8"?>
<!-- Generator: Adobe Illustrator 25.1.0, SVG Export Plug-In . SVG Version: 6.00 Build 0)  -->
<svg version="1.1" id="Capa_1" xmlns="http://www.w3.org/2000/svg" xmlns:xlink="http://www.w3.org/1999/xlink" x="0px" y="0px"
	 viewBox="0 0 1920 1080" style="enable-background:new 0 0 1920 1080;" xml:space="preserve">
<style type="text/css">
	.st0{fill:#FFFFFF;}
</style>
<g>
	<g>
		<path class="st0" d="M457.47,70.26c-3.92,22.98-7.79,45.92-11.74,68.85c-20.11,116.68-40.51,233.31-60.23,350.05
			c-7.77,46,15.73,84.13,56.38,91.63c31.27,5.78,57.13-6.47,78.3-28.93c18.74-19.89,28.32-44.39,33.14-70.94
			c24.18-133.13,48.47-266.24,72.24-399.44c1.85-10.38,5.7-13.57,15.9-13.43c36.03,0.51,72.07,0.17,108.11,0.24
			c3.81,0.01,7.61,0.57,12.65,0.98c-0.8,20.25-5.62,39.11-8.86,58.11c-20.24,118.41-41.77,236.61-61.09,355.17
			C668.62,627.64,541.96,725.73,395.31,711c-44.47-4.47-86-17.18-122.56-43.17c-62.75-44.62-87.31-105.84-75.3-181.49
			c21.15-133.21,42.89-266.33,64.3-399.5c2.98-18.54,2.78-18.59,21.46-18.6c52.54-0.01,105.07-0.02,157.61,0.03
			C445.93,68.28,451.19,67.53,457.47,70.26z"/>
		<path class="st0" d="M713.25,706.89c4.27-24.96,8.53-50.46,13-75.92c27.45-156.26,54.94-312.52,82.43-468.77
			c4.88-27.75,10.13-55.44,14.58-83.26c1.29-8.06,4.46-10.86,12.59-10.81c94.6,0.5,189.24-0.82,283.79,1.45
			c95.49,2.3,164.07,69.97,172.07,165.43c9.37,111.74-67.24,203.44-178.25,212.4c-51.96,4.19-104.09,0.83-156.14,1.62
			c-17.13,0.26-17.11,0.08-20.07,17.35c-8.91,52.13-17.87,104.25-26.73,156.39c-1.13,6.67-2.91,11.9-10.38,14.77
			c-59.47,22.89-118.79,46.2-178.16,69.34C719.65,707.8,717.24,709.16,713.25,706.89z M958.95,334.53c26.24,0,50.81,0,75.38,0
			c41.78,0,70.68-22.6,80.52-62.98c9.91-40.64-14.63-78.36-52.27-79.42c-24.24-0.68-48.52,0.11-72.78-0.28
			c-7.78-0.13-10.44,2.87-11.42,10.32c-2.88,21.88-6.59,43.65-9.82,65.48C965.34,289.37,962.3,311.12,958.95,334.53z"/>
		<path class="st0" d="M1719.54,462.39c-54.13,1.05-108.01,4.72-163.31,11.13c-10.77-88.49-21.38-175.63-32.17-264.26
			c-5.43,3.64-6.2,8.5-7.9,12.51c-37.02,87.47-74.06,174.93-110.68,262.57c-4.06,9.71-9.3,15.05-20.08,17.09
			c-42.18,7.99-84.01,17.66-125.56,28.49c-3.2,0.83-6.58,2.5-10.09,0.25c-0.45-5.09,2.62-9.04,4.55-13.24
			c67.52-146.54,135.21-293,202.53-439.62c3.84-8.36,8.34-11.4,17.53-11.33c55.56,0.41,111.13,0.46,166.69-0.02
			c10.48-0.09,13.73,3.35,15.47,13.6c20.88,123.12,42.35,246.14,63.65,369.19C1720.85,452.57,1721.76,456.41,1719.54,462.39z"/>
		<path class="st0" d="M64.98,1012.04c38.74-15.11,77.38-30.44,116.22-45.27c135.88-51.9,269.3-109.6,402.32-168.37
			C779,712.03,978,634.89,1183.7,575.95c105.66-30.27,212.68-54.44,321.45-70.4c103.76-15.22,208.13-20.08,312.9-16.18
			c13.39,0.5,26.74,2.03,40.15,3.62c-42.56,3.91-85.51,2.14-129.7,7.7c10.33,60.42,20.46,119.65,30.8,180.08
			c-59.61,0-117.95,0-177.78,0c-6.64-53.33-13.26-106.52-19.97-160.41c-15.67-1.9-29.48,2.69-43.33,4.88
			c-43.28,6.86-86.2,15.74-129.1,24.66c-8.79,1.83-13.29,6.14-16.65,14.07c-15.22,35.95-30.98,71.68-46.4,107.54
			c-2.49,5.79-4.51,10.51-12.57,10.44c-42.55-0.39-85.11-0.19-127.66-0.27c-1.58,0-3.17-0.68-6.51-1.44
			c13.49-28.48,26.59-56.14,40.01-84.49c-5.66-2.43-9.91,0.08-14.15,1.29c-126.13,36.05-249.62,79.85-372.02,126.86
			C674.7,784.76,518.72,851.73,360.47,913.05c-93.1,36.08-186.92,70.09-282.96,97.69c-3.96,1.14-7.94,2.21-11.91,3.31
			C65.4,1013.38,65.19,1012.71,64.98,1012.04z"/>
	</g>
</g>
</svg>
