<?xml version="1.0" encoding="utf-8"?>
<!-- Generator: Adobe Illustrator 25.1.0, SVG Export Plug-In . SVG Version: 6.00 Build 0)  -->
<svg version="1.1" xmlns="http://www.w3.org/2000/svg" xmlns:xlink="http://www.w3.org/1999/xlink" x="0px" y="0px"
	 viewBox="0 0 2020 2020" style="enable-background:new 0 0 2020 2020;" xml:space="preserve">
<style type="text/css">
	.st0{fill:#072F4C;}
	.st1{fill:#FFFFFF;}
	.st2{display:none;}
	.st3{display:inline;}
</style>
<g id="Capa_2">
	<circle class="st0" cx="1010" cy="1010" r="1010"/>
</g>
<g id="Capa_1">
	<g>
		<g>
			<path class="st1" d="M472.5,685.3c-3.9,23-7.8,45.9-11.7,68.8c-20.1,116.7-40.5,233.3-60.2,350c-7.8,46,15.7,84.1,56.4,91.6
				c31.3,5.8,57.1-6.5,78.3-28.9c18.7-19.9,28.3-44.4,33.1-70.9c24.2-133.1,48.5-266.2,72.2-399.4c1.8-10.4,5.7-13.6,15.9-13.4
				c36,0.5,72.1,0.2,108.1,0.2c3.8,0,7.6,0.6,12.7,1c-0.8,20.2-5.6,39.1-8.9,58.1c-20.2,118.4-41.8,236.6-61.1,355.2
				c-23.7,145.1-150.3,243.2-297,228.4c-44.5-4.5-86-17.2-122.6-43.2c-62.8-44.6-87.3-105.8-75.3-181.5
				c21.1-133.2,42.9-266.3,64.3-399.5c3-18.5,2.8-18.6,21.5-18.6c52.5,0,105.1,0,157.6,0C460.9,683.3,466.2,682.5,472.5,685.3z"/>
			<path class="st1" d="M728.2,1321.9c4.3-25,8.5-50.5,13-75.9c27.5-156.3,54.9-312.5,82.4-468.8c4.9-27.8,10.1-55.4,14.6-83.3
				c1.3-8.1,4.5-10.9,12.6-10.8c94.6,0.5,189.2-0.8,283.8,1.4c95.5,2.3,164.1,70,172.1,165.4c9.4,111.7-67.2,203.4-178.2,212.4
				c-52,4.2-104.1,0.8-156.1,1.6c-17.1,0.3-17.1,0.1-20.1,17.3c-8.9,52.1-17.9,104.2-26.7,156.4c-1.1,6.7-2.9,11.9-10.4,14.8
				c-59.5,22.9-118.8,46.2-178.2,69.3C734.7,1322.8,732.2,1324.2,728.2,1321.9z M974,949.5c26.2,0,50.8,0,75.4,0
				c41.8,0,70.7-22.6,80.5-63c9.9-40.6-14.6-78.4-52.3-79.4c-24.2-0.7-48.5,0.1-72.8-0.3c-7.8-0.1-10.4,2.9-11.4,10.3
				c-2.9,21.9-6.6,43.6-9.8,65.5C980.3,904.4,977.3,926.1,974,949.5z"/>
			<path class="st1" d="M1734.5,1077.4c-54.1,1-108,4.7-163.3,11.1c-10.8-88.5-21.4-175.6-32.2-264.3c-5.4,3.6-6.2,8.5-7.9,12.5
				c-37,87.5-74.1,174.9-110.7,262.6c-4.1,9.7-9.3,15-20.1,17.1c-42.2,8-84,17.7-125.6,28.5c-3.2,0.8-6.6,2.5-10.1,0.2
				c-0.4-5.1,2.6-9,4.6-13.2c67.5-146.5,135.2-293,202.5-439.6c3.8-8.4,8.3-11.4,17.5-11.3c55.6,0.4,111.1,0.5,166.7,0
				c10.5-0.1,13.7,3.3,15.5,13.6c20.9,123.1,42.3,246.1,63.7,369.2C1735.8,1067.6,1736.8,1071.4,1734.5,1077.4z"/>
			<path class="st1" d="M80,1627c38.7-15.1,77.4-30.4,116.2-45.3c135.9-51.9,269.3-109.6,402.3-168.4
				C794,1327,993,1249.9,1198.7,1190.9c105.7-30.3,212.7-54.4,321.4-70.4c103.8-15.2,208.1-20.1,312.9-16.2
				c13.4,0.5,26.7,2,40.2,3.6c-42.6,3.9-85.5,2.1-129.7,7.7c10.3,60.4,20.5,119.7,30.8,180.1c-59.6,0-117.9,0-177.8,0
				c-6.6-53.3-13.3-106.5-20-160.4c-15.7-1.9-29.5,2.7-43.3,4.9c-43.3,6.9-86.2,15.7-129.1,24.7c-8.8,1.8-13.3,6.1-16.7,14.1
				c-15.2,35.9-31,71.7-46.4,107.5c-2.5,5.8-4.5,10.5-12.6,10.4c-42.6-0.4-85.1-0.2-127.7-0.3c-1.6,0-3.2-0.7-6.5-1.4
				c13.5-28.5,26.6-56.1,40-84.5c-5.7-2.4-9.9,0.1-14.2,1.3c-126.1,36-249.6,79.8-372,126.9c-158.5,60.9-314.5,127.8-472.7,189.2
				c-93.1,36.1-186.9,70.1-283,97.7c-4,1.1-7.9,2.2-11.9,3.3C80.4,1628.4,80.2,1627.7,80,1627z"/>
		</g>
	</g>
</g>
<g id="Capa_1_copia" class="st2">
	<g class="st3">
		<g>
			<path class="st1" d="M583.9,684.9c-3.4,15.7-6.8,31.3-10.3,46.9c-17.6,79.6-35.4,159.1-52.7,238.7c-6.8,31.4,13.8,57.4,49.3,62.5
				c27.4,3.9,50-4.4,68.5-19.7c16.4-13.6,24.8-30.3,29-48.4c21.2-90.8,42.4-181.5,63.2-272.4c1.6-7.1,5-9.3,13.9-9.2
				c31.5,0.3,63.1,0.1,94.6,0.2c3.3,0,6.7,0.4,11.1,0.7c-0.7,13.8-4.9,26.7-7.8,39.6C825,804.6,806.2,885.2,789.3,966
				c-20.7,98.9-131.5,165.8-259.8,155.8c-38.9-3-75.2-11.7-107.2-29.4c-54.9-30.4-76.4-72.2-65.9-123.8
				c18.5-90.8,37.5-181.6,56.3-272.4c2.6-12.6,2.4-12.7,18.8-12.7c46,0,91.9,0,137.9,0C573.8,683.5,578.4,683,583.9,684.9z"/>
			<path class="st1" d="M807.7,1119c3.7-17,7.5-34.4,11.4-51.8c24-106.6,48.1-213.1,72.1-319.7c4.3-18.9,8.9-37.8,12.8-56.8
				c1.1-5.5,3.9-7.4,11-7.4c82.8,0.3,165.6-0.6,248.3,1c83.5,1.6,143.5,47.7,150.5,112.8c8.2,76.2-58.8,138.7-155.9,144.8
				c-45.5,2.9-91.1,0.6-136.6,1.1c-15,0.2-15,0.1-17.6,11.8c-7.8,35.5-15.6,71.1-23.4,106.6c-1,4.5-2.5,8.1-9.1,10.1
				c-52,15.6-103.9,31.5-155.9,47.3C813.3,1119.6,811.2,1120.6,807.7,1119z"/>
			<path class="st1" d="M1022.6,865.1c23,0,44.5,0,65.9,0c36.6,0,61.8-15.4,70.4-42.9c8.7-27.7-12.8-53.4-45.7-54.2
				c-21.2-0.5-42.4,0.1-63.7-0.2c-6.8-0.1-9.1,2-10,7c-2.5,14.9-5.8,29.8-8.6,44.7C1028.2,834.3,1025.6,849.1,1022.6,865.1z"/>
			<path class="st1" d="M1688,952.3c-47.4,0.7-94.5,3.2-142.9,7.6c-9.4-60.3-18.7-119.8-28.1-180.2c-4.8,2.5-5.4,5.8-6.9,8.5
				c-32.4,59.6-64.8,119.3-96.8,179c-3.6,6.6-8.1,10.3-17.6,11.7c-36.9,5.4-73.5,12-109.9,19.4c-2.8,0.6-5.8,1.7-8.8,0.2
				c-0.4-3.5,2.3-6.2,4-9c59.1-99.9,118.3-199.8,177.2-299.8c3.4-5.7,7.3-7.8,15.3-7.7c48.6,0.3,97.2,0.3,145.8,0
				c9.2-0.1,12,2.3,13.5,9.3c18.3,84,37.1,167.8,55.7,251.8C1689.2,945.6,1690,948.2,1688,952.3z"/>
			<path class="st1" d="M240.5,1327.1c33.9-10.3,67.7-20.8,101.7-30.9c118.9-35.4,235.6-74.7,352-114.8
				c171-58.9,345.1-111.5,525.1-151.7c92.4-20.6,186.1-37.1,281.2-48c90.8-10.4,182.1-13.7,273.8-11c11.7,0.3,23.4,1.4,35.1,2.5
				c-37.2,2.7-74.8,1.5-113.5,5.3c9,41.2,17.9,81.6,26.9,122.8c-52.2,0-103.2,0-155.5,0c-5.8-36.4-11.6-72.6-17.5-109.4
				c-13.7-1.3-25.8,1.8-37.9,3.3c-37.9,4.7-75.4,10.7-112.9,16.8c-7.7,1.2-11.6,4.2-14.6,9.6c-13.3,24.5-27.1,48.9-40.6,73.3
				c-2.2,3.9-3.9,7.2-11,7.1c-37.2-0.3-74.5-0.1-111.7-0.2c-1.4,0-2.8-0.5-5.7-1c11.8-19.4,23.3-38.3,35-57.6
				c-5-1.7-8.7,0.1-12.4,0.9c-110.3,24.6-218.4,54.4-325.5,86.5c-138.6,41.5-275.1,87.2-413.6,129c-81.5,24.6-163.5,47.8-247.6,66.6
				c-3.5,0.8-6.9,1.5-10.4,2.3C240.9,1328,240.7,1327.5,240.5,1327.1z"/>
		</g>
	</g>
</g>
</svg>
